<?xml version="1.0" standalone="no"?>
<!DOCTYPE svg PUBLIC "-//W3C//DTD SVG 20010904//EN"
 "http://www.w3.org/TR/2001/REC-SVG-20010904/DTD/svg10.dtd">
<svg version="1.0" xmlns="http://www.w3.org/2000/svg"
 width="1144.000000pt" height="249.000000pt" viewBox="0 0 1144.000000 249.000000"
 preserveAspectRatio="xMidYMid meet">

<g transform="translate(0.000000,249.000000) scale(0.100000,-0.100000)"
fill="#8B0000" stroke="none">
<path d="M9811 2226 c-12 -31 -21 -61 -21 -67 0 -17 -60 -143 -73 -151 -7 -4
-83 -8 -170 -8 -103 0 -156 -3 -152 -10 4 -6 67 -10 156 -10 82 0 149 -4 149
-8 0 -33 -186 -256 -222 -268 -29 -9 -48 19 -48 67 0 46 -14 57 -42 32 -15
-14 -37 -18 -92 -19 -52 0 -83 -6 -112 -20 -45 -24 -116 -107 -175 -207 -22
-37 -54 -84 -71 -102 -57 -65 -108 -35 -108 64 0 52 1 54 19 37 18 -16 19 -15
25 19 4 19 4 51 0 71 -4 23 0 64 10 108 9 39 27 116 40 171 24 99 21 130 -8
106 -27 -22 -88 -219 -98 -315 -3 -26 -11 -31 -86 -60 -95 -35 -146 -78 -164
-137 -16 -55 -108 -152 -139 -147 -35 5 -69 77 -69 146 0 46 2 53 14 43 24
-20 26 3 8 75 -15 57 -23 71 -45 82 -58 28 -154 -31 -248 -152 -86 -112 -185
-211 -252 -254 -67 -44 -136 -67 -169 -56 -18 5 -15 10 31 51 34 29 61 66 83
111 29 60 32 76 32 152 0 95 -14 146 -51 190 -47 56 -134 33 -183 -49 -14 -23
-33 -52 -42 -64 -17 -21 -17 -20 -11 44 4 46 2 68 -6 74 -18 11 -20 5 -25 -68
-10 -155 -175 -344 -345 -397 -52 -17 -101 -16 -101 1 0 5 -4 9 -10 9 -22 0
-8 -31 17 -41 92 -35 281 83 394 245 54 76 57 73 34 -47 -9 -47 -15 -136 -15
-220 0 -196 39 -502 65 -502 19 0 25 68 24 268 0 115 2 212 6 215 4 4 48 7 98
7 89 0 94 2 157 39 84 51 150 108 204 176 93 117 103 123 60 38 -34 -66 -43
-148 -19 -171 9 -9 29 -17 45 -17 44 0 86 52 157 192 59 117 63 121 63 83 1
-58 26 -170 45 -199 26 -39 74 -35 124 9 46 42 51 43 51 10 0 -62 85 -86 151
-42 19 12 48 43 64 69 17 26 34 47 38 47 4 1 13 -13 19 -29 10 -30 44 -48 78
-41 28 5 61 45 141 166 44 66 89 126 100 133 20 13 20 13 -1 -27 -26 -51 -27
-137 -2 -169 19 -24 75 -38 114 -29 29 8 103 80 129 128 17 29 26 35 45 31 17
-3 24 0 24 11 0 8 15 25 34 37 41 25 133 122 177 188 70 102 66 106 61 -52 -3
-85 0 -157 7 -182 16 -59 71 -119 123 -133 66 -19 102 -3 301 127 64 42 111
66 137 69 42 6 61 20 38 28 -28 11 -107 -24 -211 -94 -139 -94 -187 -115 -246
-108 -37 4 -52 12 -77 41 -42 49 -54 96 -54 217 1 110 13 189 33 201 7 4 144
8 305 8 193 0 291 3 287 10 -4 6 -115 10 -301 10 -162 0 -294 3 -294 7 0 4 18
60 41 126 26 77 37 123 31 129 -6 6 -17 -10 -31 -46z m-946 -456 c-4 -28 -9
-49 -12 -47 -2 3 -1 28 3 56 4 28 9 50 11 47 3 -3 2 -28 -2 -56z m-1116 -26
c32 -40 44 -100 39 -194 -3 -70 -9 -94 -33 -139 -29 -53 -96 -118 -136 -133
-15 -6 -28 -1 -49 20 -26 27 -28 35 -35 145 -7 115 -7 117 23 180 42 91 95
147 137 147 24 0 39 -7 54 -26z m1587 -4 c17 -6 35 -23 43 -41 12 -27 11 -35
-5 -67 -11 -20 -42 -60 -70 -89 -42 -45 -56 -53 -86 -53 -71 0 -99 79 -59 165
35 77 104 110 177 85z m-1006 -49 c0 -28 -14 -41 -46 -41 -36 0 -81 -17 -124
-47 -16 -10 -11 -2 14 25 22 22 53 48 70 56 34 17 86 21 86 7z m-35 -71 c9
-15 -93 -214 -133 -261 -49 -57 -92 -49 -92 17 0 39 60 161 97 196 51 48 113
72 128 48z m500 -3 c14 -11 16 -21 11 -49 -11 -58 -65 -156 -104 -188 -65 -54
-132 -33 -132 41 0 31 9 48 46 91 95 110 137 135 179 105z m-1275 -221 c0 -36
-13 -55 -25 -36 -9 14 4 70 16 70 5 0 9 -15 9 -34z m5 -97 c8 -23 1 -34 -14
-24 -13 8 -15 45 -2 45 5 0 13 -9 16 -21z m8 -145 c9 -99 9 -309 1 -301 -13
12 -33 153 -40 276 -7 122 -7 123 13 113 16 -9 21 -25 26 -88z"/>
<path d="M11239 2257 c-41 -27 -153 -165 -215 -264 -37 -59 -49 -71 -62 -64
-29 15 -64 58 -127 154 -64 97 -95 118 -122 81 -47 -65 18 -208 213 -465 70
-92 104 -120 104 -84 0 8 -6 15 -13 15 -16 0 -167 204 -234 316 -38 64 -48 89
-51 137 -6 72 9 94 39 57 10 -14 33 -48 50 -77 42 -73 132 -166 155 -161 10 2
28 18 39 36 50 80 153 220 195 264 54 56 95 65 106 23 13 -51 -1 -139 -31
-199 -27 -51 -124 -179 -231 -304 -62 -72 -27 -60 39 13 196 217 269 351 252
463 -12 81 -45 100 -106 59z"/>
<path d="M6055 2044 c-58 -63 -135 -381 -135 -559 0 -44 -5 -57 -35 -92 -44
-52 -135 -113 -178 -120 -26 -4 -40 0 -62 19 -24 21 -29 33 -32 84 -1 32 0 53
3 47 3 -7 12 -13 20 -13 12 0 14 12 12 58 l-3 57 -42 3 c-91 7 -192 -79 -321
-271 -97 -145 -119 -167 -171 -167 -43 0 -76 29 -109 95 -37 75 -37 82 2 100
84 40 176 180 176 268 0 61 -17 82 -63 73 -56 -10 -117 -63 -172 -148 -27 -43
-53 -77 -57 -78 -16 0 14 67 39 90 38 35 95 115 125 175 50 100 93 267 86 335
-3 34 -5 35 -43 35 -65 0 -73 -18 -164 -355 -23 -85 -45 -166 -49 -180 -11
-37 -84 -86 -264 -180 -183 -96 -249 -149 -296 -238 -36 -67 -43 -140 -17
-162 13 -11 14 -7 9 34 -6 37 -2 55 21 102 50 102 105 147 305 249 52 26 119
63 148 81 50 33 72 41 72 28 0 -3 -23 -76 -50 -163 -53 -163 -71 -251 -52
-251 16 0 27 24 52 115 27 99 62 195 72 195 5 0 8 -5 8 -10 0 -6 12 -16 26
-22 17 -8 36 -35 58 -82 38 -80 60 -107 105 -125 67 -28 107 3 224 176 79 118
137 189 137 168 0 -4 -9 -23 -21 -41 -25 -42 -37 -137 -19 -159 17 -20 53 -19
73 3 10 10 37 54 61 96 l45 78 11 -43 c15 -55 59 -99 100 -99 41 0 122 42 175
91 23 21 45 39 47 39 3 0 11 -20 17 -44 7 -29 23 -54 46 -75 32 -28 42 -31
100 -31 53 0 74 6 127 33 l64 33 28 -20 c22 -17 42 -21 109 -21 71 0 90 4 139
29 59 30 96 61 85 72 -4 4 -23 -6 -42 -21 -67 -51 -178 -77 -240 -57 -63 21
-63 25 3 97 46 51 77 99 121 189 69 140 81 183 55 193 -40 15 -166 -87 -219
-179 -41 -69 -69 -176 -61 -229 6 -36 6 -36 -58 -68 -47 -23 -77 -31 -116 -31
-46 0 -56 4 -85 33 -43 43 -57 116 -30 162 92 160 125 241 154 384 28 132 28
216 2 231 -27 14 -29 13 -56 -16z m53 -43 c4 -41 -24 -206 -49 -283 -22 -71
-86 -203 -106 -220 -13 -11 -14 -3 -8 57 12 133 68 373 103 440 28 55 55 58
60 6z m-996 -41 c-6 -121 -83 -320 -157 -405 -42 -49 -45 -35 -14 75 11 41 32
118 45 170 43 165 71 223 107 218 20 -3 22 -8 19 -58z m1398 -245 c0 -22 -72
-173 -115 -241 -39 -62 -103 -134 -118 -134 -6 0 -8 29 -5 68 9 111 59 198
163 281 53 43 75 50 75 26z m-1356 -170 c-1 -30 -10 -68 -23 -94 -43 -84 -136
-163 -174 -148 -7 3 -19 24 -27 46 -12 38 -12 45 8 79 57 100 139 175 187 170
29 -3 30 -4 29 -53z m421 -87 c-4 -13 -25 -60 -47 -105 -62 -129 -110 -166
-116 -92 -6 72 91 219 145 219 21 0 23 -3 18 -22z"/>
<path d="M516 1708 c-21 -30 -20 -45 3 -58 28 -14 29 -14 45 23 22 52 -17 80
-48 35z"/>
<path d="M3346 1541 c-9 -16 -29 -66 -45 -111 -54 -147 -98 -200 -166 -200
-68 0 -118 59 -145 169 -18 72 -39 89 -58 46 -7 -14 -25 -76 -42 -138 -40
-153 -58 -207 -75 -234 -37 -56 -69 -7 -80 122 -10 114 -33 218 -51 231 -26
20 -54 3 -85 -50 -29 -50 -79 -196 -79 -232 -1 -46 -18 16 -28 98 -5 49 -17
99 -26 113 -19 29 -56 33 -79 8 -21 -24 -54 -110 -82 -215 -35 -131 -41 -134
-48 -27 -15 208 -20 260 -29 265 -14 9 -16 4 -28 -70 -23 -145 -99 -301 -158
-325 -52 -22 -107 18 -132 95 -11 31 -9 42 13 92 36 82 43 126 23 157 -21 32
-51 32 -72 0 -14 -21 -16 -42 -11 -118 6 -107 -2 -132 -40 -122 -20 5 -24 2
-21 -12 4 -24 35 -28 58 -8 20 18 19 19 55 -50 16 -30 32 -44 63 -55 37 -13
45 -12 76 2 52 25 112 125 150 251 14 44 24 6 31 -112 7 -143 24 -192 45 -136
6 17 26 86 44 155 49 190 96 267 126 210 7 -12 17 -70 24 -129 7 -59 16 -112
20 -119 13 -21 32 3 51 66 41 137 58 183 78 213 47 69 60 48 81 -122 9 -68 20
-140 26 -160 12 -42 41 -72 67 -67 27 5 68 98 107 247 19 74 40 139 45 144 5
5 15 -13 26 -49 29 -102 85 -154 165 -154 79 0 122 52 188 226 20 54 42 99 48
101 15 5 31 -65 45 -199 l11 -107 -35 -63 c-42 -75 -77 -166 -103 -268 -29
-113 -26 -430 4 -551 50 -202 117 -283 180 -216 64 68 67 152 22 677 -6 69
-17 174 -25 233 -23 164 -21 179 20 216 67 59 111 75 205 76 95 0 143 -20 171
-71 20 -38 18 -147 -5 -217 -16 -52 -16 -81 0 -64 15 14 44 145 43 192 -1 75
-20 116 -68 150 -40 28 -48 30 -139 30 -105 0 -156 -17 -214 -73 -15 -14 -29
-24 -31 -21 -3 2 -12 62 -21 132 -9 70 -22 139 -28 153 -15 33 -44 30 -62 -5z
m-1415 -224 c8 -17 6 -36 -8 -77 -26 -77 -43 -77 -43 0 0 88 27 129 51 77z
m1509 -155 c0 -4 9 -86 20 -182 11 -96 27 -291 36 -433 19 -284 14 -343 -31
-395 -21 -24 -25 -25 -48 -13 -99 53 -161 501 -103 746 30 125 95 285 116 285
6 0 10 -3 10 -8z"/>
<path d="M1324 1399 c-9 -17 -31 -84 -49 -148 -47 -166 -65 -214 -105 -273
-28 -42 -41 -54 -66 -56 -49 -5 -59 17 -57 117 3 147 9 168 51 190 63 32 92
66 92 105 0 27 -6 40 -25 52 -23 15 -27 15 -49 0 -14 -9 -33 -39 -45 -73 -31
-84 -31 -85 -107 -123 -92 -46 -153 -89 -246 -172 -76 -68 -78 -69 -88 -46
-16 38 -49 192 -62 288 -6 50 -15 90 -20 90 -4 0 -34 -54 -67 -120 -73 -147
-105 -193 -199 -292 -90 -94 -153 -138 -199 -138 -34 0 -45 -16 -18 -27 33
-12 106 29 190 109 107 101 169 184 231 306 l48 97 12 -55 c7 -30 24 -107 38
-170 15 -63 26 -122 26 -131 0 -8 -18 -39 -40 -69 -22 -29 -65 -103 -96 -164
-50 -100 -56 -119 -61 -191 -10 -145 32 -348 89 -431 64 -93 144 -74 188 43
37 100 21 431 -35 725 l-14 73 57 55 c31 31 84 76 118 102 62 47 184 118 205
118 8 0 9 -29 5 -107 -6 -93 -4 -113 11 -143 15 -30 24 -35 57 -38 31 -3 44 2
66 23 42 40 84 135 125 280 38 135 62 201 70 194 2 -3 16 -83 31 -179 38 -249
47 -265 83 -151 33 105 67 149 161 205 44 27 83 53 86 58 25 40 -174 -76 -205
-120 -11 -15 -32 -55 -47 -87 l-27 -60 -9 40 c-5 22 -17 100 -28 173 -11 73
-22 137 -25 142 -12 19 -35 9 -51 -21z m-156 -60 c2 -21 -6 -34 -35 -58 -21
-17 -41 -31 -45 -31 -14 0 -8 33 12 78 16 35 24 43 42 40 16 -2 24 -11 26 -29z
m-529 -541 c7 -46 16 -105 21 -133 15 -74 30 -267 30 -370 -1 -109 -13 -168
-46 -218 -85 -129 -206 86 -208 368 l-1 120 41 87 c47 96 129 228 143 228 5 0
14 -37 20 -82z"/>
</g>
</svg>
