<svg xmlns="http://www.w3.org/2000/svg" xmlns:xlink="http://www.w3.org/1999/xlink" width="231" height="28" viewBox="0 0 231 28">
  <defs>
    <linearGradient id="prefix__a" x1="0%" x2="100%" y1="50%" y2="50%">
      <stop offset="0%" stop-color="#3BBA9C"/>
      <stop offset="100%" stop-color="#43455C"/>
    </linearGradient>
    <ellipse id="prefix__b" cx="13.148" cy="13.022" rx="13.148" ry="13.022"/>
  </defs>
  <g fill="none" fill-rule="evenodd">
    <path fill="url(#prefix__a)" d="M35.616 0l14.447 22.512-14.447 5.376-14.448-5.376L35.616 0zM10.177 1.205c1.39 0 2.733.195 4.03.585 1.296.39 2.466 1.043 3.508 1.96l-3.717 4.026c-.44-.55-1.036-.958-1.789-1.221-.752-.264-1.464-.396-2.136-.396-.394 0-.799.046-1.216.138-.417.091-.81.235-1.18.43-.371.195-.672.453-.904.774-.231.32-.347.71-.347 1.17 0 .733.278 1.295.834 1.685.555.39 1.256.722 2.1.998.846.275 1.755.55 2.728.825.972.276 1.881.665 2.726 1.17.845.505 1.546 1.181 2.102 2.03.555.848.833 1.983.833 3.405 0 1.354-.254 2.535-.764 3.544s-1.198 1.846-2.067 2.511c-.868.665-1.875 1.158-3.021 1.48-1.147.32-2.357.481-3.63.481-1.598 0-3.08-.24-4.446-.722-1.366-.482-2.64-1.262-3.821-2.34l3.856-4.197c.555.734 1.256 1.302 2.101 1.703.845.402 1.72.602 2.622.602.44 0 .886-.051 1.338-.155.451-.103.856-.258 1.215-.464.36-.206.649-.47.869-.791.22-.321.33-.7.33-1.136 0-.733-.284-1.313-.851-1.737-.568-.424-1.28-.785-2.136-1.083-.857-.299-1.783-.597-2.78-.895-.995-.298-1.921-.7-2.778-1.204-.857-.505-1.569-1.17-2.136-1.995-.567-.826-.851-1.915-.851-3.268 0-1.308.26-2.454.781-3.44.521-.987 1.216-1.812 2.084-2.478.869-.665 1.87-1.163 3.005-1.496 1.135-.333 2.304-.499 3.508-.499zm43.36.62h7.365L71.357 18.75h.07V1.824h5.418v24.357h-7.086L59.026 8.842h-.07v17.339h-5.418V1.824zm29.763 0h8.128c1.968 0 3.838.217 5.61.653 1.771.436 3.317 1.141 4.637 2.116 1.32.974 2.367 2.242 3.143 3.801.776 1.56 1.164 3.452 1.164 5.676 0 1.973-.377 3.71-1.13 5.212-.752 1.502-1.765 2.764-3.038 3.784-1.274 1.021-2.744 1.795-4.412 2.323-1.667.527-3.415.79-5.245.79H83.3V1.825zm5.419 19.402h2.813c1.25 0 2.414-.126 3.491-.378 1.077-.253 2.009-.671 2.796-1.256.788-.585 1.407-1.353 1.858-2.305.452-.952.678-2.116.678-3.492 0-1.192-.226-2.23-.678-3.113-.451-.883-1.059-1.611-1.823-2.185-.764-.573-1.662-1.003-2.692-1.29-1.03-.286-2.113-.43-3.248-.43H88.72v14.449zm34.555-13.451c-.44-.55-1.036-.958-1.788-1.221-.753-.264-1.465-.396-2.137-.396-.393 0-.798.046-1.215.138-.417.091-.81.235-1.181.43-.37.195-.672.453-.903.774-.232.32-.348.71-.348 1.17 0 .733.278 1.295.834 1.685.556.39 1.256.722 2.101.998.846.275 1.754.55 2.727.825.973.276 1.882.665 2.727 1.17.845.505 1.545 1.181 2.101 2.03.556.848.834 1.983.834 3.405 0 1.354-.255 2.535-.764 3.544-.51 1.009-1.199 1.846-2.067 2.511-.868.665-1.876 1.158-3.022 1.48-1.146.32-2.356.481-3.63.481-1.598 0-3.08-.24-4.446-.722-1.366-.482-2.64-1.262-3.82-2.34l3.855-4.197c.556.734 1.256 1.302 2.101 1.703.846.402 1.72.602 2.623.602.44 0 .886-.051 1.337-.155.452-.103.857-.258 1.216-.464.359-.206.648-.47.868-.791.22-.321.33-.7.33-1.136 0-.733-.283-1.313-.85-1.737-.568-.424-1.28-.785-2.137-1.083-.857-.299-1.783-.597-2.779-.895-.995-.298-1.922-.7-2.778-1.204-.857-.505-1.57-1.17-2.137-1.995-.567-.826-.85-1.915-.85-3.268 0-1.308.26-2.454.78-3.44.522-.987 1.217-1.812 2.085-2.478.868-.665 1.87-1.163 3.004-1.496 1.135-.333 2.305-.499 3.509-.499 1.389 0 2.732.195 4.029.585 1.297.39 2.466 1.043 3.508 1.96l-3.717 4.026zm14.72-1.204h-7.016V1.824h19.451v4.748h-7.016V26.18h-5.419V6.57zM166.7.84c7.261 0 13.148 5.83 13.148 13.022 0 7.191-5.887 13.021-13.148 13.021-7.262 0-13.149-5.83-13.149-13.021C153.55 6.67 159.437.84 166.7.84zm24.918.984l10.455 16.926h.07V1.824h5.418v24.357h-7.086L189.74 8.842h-.07v17.339h-5.418V1.824h7.364zm21.88 0h16.707v4.954h-11.289v4.541h10.664v4.954h-10.664v4.954h11.914v4.954h-17.332V1.824z"/>
    <path fill="#43455C" d="M35.616 0L50.063 22.512 35.616 27.888z"/>
    <g transform="translate(153.55 .84)">
      <mask id="prefix__c" fill="#fff">
          <use xlink:href="#prefix__b"/>
      </mask>
      <ellipse cx="7.224" cy="7.056" fill="#303444" mask="url(#prefix__c)" rx="13.944" ry="13.776"/>
    </g>
  </g>
</svg>